<?xml version="1.0" standalone="no"?>
<!DOCTYPE svg PUBLIC "-//W3C//DTD SVG 20010904//EN"
 "http://www.w3.org/TR/2001/REC-SVG-20010904/DTD/svg10.dtd">
<svg version="1.0" xmlns="http://www.w3.org/2000/svg"
 width="285.000000pt" height="300.000000pt" viewBox="0 0 285.000000 300.000000"
 preserveAspectRatio="xMidYMid meet">
<metadata>
Created by potrace 1.10, written by Peter Selinger 2001-2011
</metadata>
<g transform="translate(0.000000,300.000000) scale(0.100000,-0.100000)"
fill="#216497" stroke="none">
<path d="M1346 2798 c-20 -28 -20 -38 -1 -38 17 0 55 35 55 50 0 19 -39 10
-54 -12z"/>
<path d="M240 2701 c0 -4 11 -25 25 -45 l25 -37 -40 -46 c-42 -48 -56 -88 -22
-62 9 7 33 28 53 46 l36 34 32 -31 c48 -44 56 -37 24 19 -27 48 -27 50 -9 70
28 31 15 46 -17 20 l-28 -22 -33 32 c-32 31 -46 38 -46 22z"/>
<path d="M1185 2566 c-393 -77 -713 -385 -816 -786 -40 -155 -35 -374 13 -528
57 -186 193 -395 323 -495 29 -22 20 -10 -31 44 -129 136 -223 305 -270 486
-33 126 -37 316 -10 438 45 203 135 370 281 520 99 101 179 160 290 211 199
92 411 110 630 54 181 -46 403 -180 538 -325 21 -22 34 -31 28 -20 -18 38
-166 173 -251 227 -140 91 -231 131 -368 163 -93 22 -273 27 -357 11z"/>
<path d="M2140 2574 c-84 -14 -141 -28 -146 -35 -3 -5 17 -5 43 -1 26 4 91 7
143 7 112 0 164 -21 193 -76 23 -43 18 -147 -12 -232 -47 -135 -173 -365 -314
-575 -27 -41 -47 -76 -44 -78 13 -13 173 213 264 373 119 207 178 393 154 480
-14 51 -55 101 -96 118 -33 14 -146 26 -185 19z"/>
<path d="M177 2132 c-20 -22 -22 -42 -4 -42 16 0 47 32 47 48 0 18 -25 14 -43
-6z"/>
<path d="M2588 2029 c-23 -13 -41 -46 -29 -53 10 -7 71 41 71 55 0 12 -21 11
-42 -2z"/>
<path d="M2355 1593 c0 -190 -3 -230 -23 -312 -42 -180 -114 -317 -235 -447
-198 -212 -483 -317 -816 -301 -69 4 -139 10 -156 13 -20 4 -27 3 -20 -4 17
-17 140 -33 263 -33 499 -2 865 267 983 722 26 100 38 283 27 418 -15 188 -23
167 -23 -56z"/>
<path d="M1811 1494 c-19 -8 -80 -59 -135 -113 -56 -54 -111 -104 -123 -110
-17 -9 -39 -7 -96 5 -93 21 -120 15 -141 -31 -15 -32 -15 -37 -1 -65 9 -17 32
-41 51 -52 32 -19 34 -22 19 -38 -8 -9 -15 -21 -15 -26 0 -13 113 -124 125
-124 6 0 16 9 23 21 12 19 14 18 45 -28 40 -59 73 -73 122 -50 44 21 51 49 31
118 -30 101 -29 106 94 234 61 64 115 127 120 141 18 45 12 112 -9 124 -27 14
-70 12 -110 -6z m114 -29 c-3 -14 -8 -37 -11 -52 -3 -18 -49 -72 -125 -149
-139 -140 -145 -153 -110 -264 l21 -65 -26 -22 c-23 -21 -27 -22 -53 -9 -15 8
-40 31 -54 50 l-27 35 42 60 c23 33 39 64 35 68 -8 8 -21 -7 -79 -94 l-41 -62
-57 52 -56 52 50 29 c28 16 65 40 82 53 38 28 39 28 71 3 15 -11 28 -18 31
-15 7 6 -48 65 -61 65 -5 0 -39 -20 -77 -44 l-68 -44 -41 40 c-46 46 -48 54
-25 87 18 24 23 24 114 1 91 -23 111 -14 240 115 113 113 142 132 203 134 24
1 27 -2 22 -24z"/>
<path d="M1215 863 c-331 -223 -575 -343 -694 -343 -67 0 -94 14 -122 64 -19
34 -23 56 -24 131 0 50 3 115 7 145 l7 55 -14 -38 c-35 -92 -38 -256 -6 -315
16 -30 55 -59 94 -72 122 -39 407 88 712 316 96 71 157 124 144 124 -2 0 -49
-30 -104 -67z"/>
<path d="M2300 562 c0 -4 12 -24 26 -45 l25 -38 -40 -46 c-65 -74 -49 -89 23
-23 l44 41 33 -33 c41 -41 52 -22 15 27 l-27 35 22 30 c28 37 21 47 -15 19
l-27 -22 -33 32 c-32 31 -46 38 -46 23z"/>
<path d="M970 258 c-22 -24 -25 -34 -10 -43 11 -7 60 38 60 55 0 18 -28 11
-50 -12z"/>
</g>
</svg>
